<svg width="30" height="27" viewBox="0 0 30 27" fill="none" xmlns="http://www.w3.org/2000/svg">
<path d="M27.9053 14.9231V14.8854L27.8976 14.9295L26.213 24.5821C26.1352 25.0274 25.9213 25.3951 25.5712 25.6856C25.221 25.9761 24.8224 26.1212 24.375 26.1212H5.625C5.17764 26.1212 4.779 25.9761 4.42882 25.6856C4.07867 25.3951 3.8648 25.0274 3.78699 24.5821L2.10242 14.9295L2.13949 14.9231H2.09473H1.875C1.35948 14.9231 0.919572 14.7416 0.554828 14.3786C0.190085 14.0155 0.0078125 13.5776 0.0078125 13.0645C0.0078125 12.5514 0.190085 12.1135 0.554828 11.7505C0.919572 11.3874 1.35948 11.206 1.875 11.206H28.125C28.6405 11.206 29.0804 11.3874 29.4452 11.7505C29.8099 12.1135 29.9922 12.5514 29.9922 13.0645C29.9922 13.5776 29.8099 14.0155 29.4452 14.3786C29.0804 14.7416 28.6405 14.9231 28.125 14.9231H27.9053ZM7.10449 22.8707L7.10509 22.8707C7.36113 22.8511 7.57543 22.7407 7.74763 22.5399C7.91982 22.3391 7.99624 22.1111 7.97654 21.8562L7.50779 15.7905C7.48809 15.5357 7.37719 15.3223 7.17547 15.1509C6.97376 14.9795 6.74469 14.9035 6.48866 14.9231C6.23262 14.9427 6.01832 15.0531 5.84612 15.2539C5.67393 15.4546 5.59751 15.6827 5.61721 15.9376L6.08596 22.0032L6.08596 22.0033C6.10565 22.2482 6.20666 22.4542 6.38877 22.6208C6.57087 22.7874 6.78515 22.8707 7.03125 22.8707L7.10449 22.8707ZM23.914 22.0033L23.914 22.0032L24.3828 15.9376C24.4025 15.6827 24.3261 15.4546 24.1539 15.2539C23.9817 15.0531 23.7674 14.9427 23.5113 14.9231C23.2553 14.9035 23.0262 14.9795 22.8245 15.1509C22.6228 15.3223 22.5119 15.5357 22.4922 15.7905L22.0235 21.8562C22.0038 22.1111 22.0802 22.3391 22.2524 22.5399C22.4246 22.7407 22.6389 22.8511 22.8949 22.8707L22.8949 22.8707H22.8955H22.9688C23.2148 22.8707 23.4291 22.7874 23.6112 22.6208C23.7933 22.4542 23.8943 22.2482 23.914 22.0033ZM6.96508 4.25573L6.96504 4.25591L5.60411 10.2572H3.68657L5.16386 3.83654L5.16389 3.83644C5.34905 2.98279 5.78264 2.28692 6.4648 1.74855C7.147 1.21016 7.92654 0.940992 8.80371 0.940992H11.25V0.93318H11.2578C11.2578 0.682604 11.3497 0.465859 11.5338 0.282575C11.718 0.0992896 11.9357 0.0078125 12.1875 0.0078125H17.8125C18.0643 0.0078125 18.282 0.0992896 18.4662 0.282575C18.6503 0.465859 18.7422 0.682604 18.7422 0.93318H18.75V0.940992H21.1963C22.0735 0.940992 22.853 1.21016 23.5352 1.74855C24.2174 2.28692 24.6509 2.98279 24.8361 3.83644L24.8361 3.83654L26.3134 10.2572H24.3959L23.035 4.2559L23.0349 4.25573C22.9271 3.82641 22.704 3.47499 22.3657 3.20173C22.0274 2.92841 21.6375 2.79173 21.1963 2.79173H18.75V2.79954H18.7422C18.7422 3.05012 18.6503 3.26686 18.4662 3.45014C18.282 3.63343 18.0643 3.72491 17.8125 3.72491H12.1875C11.9357 3.72491 11.718 3.63343 11.5338 3.45014C11.3497 3.26686 11.2578 3.05012 11.2578 2.79954H11.25V2.79173H8.80371C8.3625 2.79173 7.97258 2.92841 7.63425 3.20173C7.29599 3.47499 7.07291 3.82641 6.96508 4.25573ZM13.1328 21.9297V15.8641C13.1328 15.6092 13.0392 15.3885 12.8522 15.2024C12.6652 15.0163 12.4435 14.9231 12.1875 14.9231C11.9315 14.9231 11.7098 15.0163 11.5228 15.2024C11.3358 15.3885 11.2422 15.6092 11.2422 15.8641V21.9297C11.2422 22.1846 11.3358 22.4053 11.5228 22.5914C11.7098 22.7775 11.9315 22.8707 12.1875 22.8707C12.4435 22.8707 12.6652 22.7775 12.8522 22.5914C13.0392 22.4053 13.1328 22.1846 13.1328 21.9297ZM18.7578 21.9297V15.8641C18.7578 15.6092 18.6642 15.3885 18.4772 15.2024C18.2902 15.0163 18.0685 14.9231 17.8125 14.9231C17.5565 14.9231 17.3348 15.0163 17.1478 15.2024C16.9608 15.3885 16.8672 15.6092 16.8672 15.8641V21.9297C16.8672 22.1846 16.9608 22.4053 17.1478 22.5914C17.3348 22.7775 17.5565 22.8707 17.8125 22.8707C18.0685 22.8707 18.2902 22.7775 18.4772 22.5914C18.6642 22.4053 18.7578 22.1846 18.7578 21.9297Z" fill="white" stroke="white" stroke-width="0.015625"/>
</svg>
