<svg width="12" height="9" viewBox="0 0 12 9" fill="none" xmlns="http://www.w3.org/2000/svg">
<path d="M10.2112 0.000173569H1.79117C1.45875 -0.000308037 1.133 0.093359 0.851614 0.270332C0.570226 0.447306 0.34471 0.700349 0.201168 1.00017C0.0331352 1.35592 -0.031584 1.75171 0.0143849 2.14244C0.0603538 2.53318 0.215162 2.90314 0.461168 3.21017L4.67117 8.31017C4.83638 8.5008 5.04065 8.65369 5.27012 8.75847C5.49959 8.86325 5.74891 8.91748 6.00117 8.91748C6.25343 8.91748 6.50274 8.86325 6.73222 8.75847C6.96169 8.65369 7.16595 8.5008 7.33117 8.31017L11.5412 3.21017C11.7872 2.90314 11.942 2.53318 11.988 2.14244C12.0339 1.75171 11.9692 1.35592 11.8012 1.00017C11.6576 0.700349 11.4321 0.447306 11.1507 0.270332C10.8693 0.093359 10.5436 -0.000308037 10.2112 0.000173569Z" fill="#D9D9D9"/>
</svg>
