<svg width="12" height="6" viewBox="0 0 12 6" fill="none" xmlns="http://www.w3.org/2000/svg">
<path d="M0.931541 0.157354L5.61654 4.76835C5.71876 4.86948 5.85675 4.92621 6.00054 4.92621C6.14433 4.92621 6.28232 4.86948 6.38454 4.76835L11.0695 0.158355C11.1724 0.0572791 11.3108 0.000642776 11.455 0.000642776C11.5992 0.000642776 11.7377 0.0572791 11.8405 0.158355C11.8912 0.207732 11.9314 0.266747 11.9589 0.331924C11.9864 0.397101 12.0006 0.467121 12.0006 0.537855C12.0006 0.60859 11.9864 0.678608 11.9589 0.743785C11.9314 0.808962 11.8912 0.867978 11.8405 0.917355L7.15654 5.52735C6.84802 5.83028 6.43292 6 6.00054 6C5.56816 6 5.15306 5.83028 4.84454 5.52735L0.160541 0.917355C0.109739 0.867962 0.0693569 0.808885 0.0417821 0.743615C0.0142074 0.678346 0 0.60821 0 0.537354C0 0.466499 0.0142074 0.396364 0.0417821 0.331095C0.0693569 0.265825 0.109739 0.206747 0.160541 0.157354C0.263396 0.0562787 0.401834 -0.000357628 0.546041 -0.000357628C0.690248 -0.000357628 0.828686 0.0562787 0.931541 0.157354Z" fill="white"/>
</svg>
