<svg width="12" height="9" viewBox="0 0 12 9" fill="none" xmlns="http://www.w3.org/2000/svg">
<path d="M9.59676 0.774954L8.89141 1.32601L5.88818 3.55776L2.88495 1.30396L2.1796 0.752912C2.01344 0.61545 1.81059 0.529758 1.5962 0.506454C1.38181 0.48315 1.16529 0.523258 0.973466 0.621808C0.781645 0.720358 0.622952 0.87302 0.517047 1.06088C0.411142 1.24874 0.36268 1.46354 0.377664 1.67868V8.06537C0.377664 8.26413 0.456622 8.45475 0.597167 8.59529C0.737712 8.73584 0.928333 8.8148 1.12709 8.8148H2.88495V4.56068L5.88818 6.81448L8.89141 4.56068V8.8148H10.6493C10.848 8.8148 11.0386 8.73584 11.1792 8.59529C11.3197 8.45475 11.3987 8.26413 11.3987 8.06537V1.67868C11.409 1.4654 11.3572 1.25371 11.2495 1.06934C11.1418 0.884967 10.9828 0.735855 10.792 0.640129C10.6011 0.544402 10.3865 0.506184 10.1743 0.530119C9.96216 0.554055 9.7615 0.639113 9.59676 0.774954Z" fill="white"/>
</svg>
