<svg width="13" height="13" viewBox="0 0 13 13" fill="none" xmlns="http://www.w3.org/2000/svg">
<path d="M0.5775 4.32812H3.12422V12.5223H0.5775V4.32812ZM1.85156 0.25C2.14366 0.25 2.42919 0.336634 2.67204 0.498943C2.91489 0.661252 3.10414 0.891943 3.21586 1.16183C3.32758 1.43172 3.35673 1.72868 3.29965 2.01514C3.24256 2.3016 3.10179 2.5647 2.89515 2.77114C2.68851 2.97759 2.42528 3.11811 2.13876 3.17492C1.85224 3.23174 1.55531 3.20229 1.28553 3.09032C1.01575 2.97835 0.78524 2.78888 0.623162 2.54587C0.461085 2.30287 0.374722 2.01725 0.375001 1.72515C0.375373 1.33379 0.531104 0.958582 0.807972 0.681977C1.08484 0.405373 1.4602 0.25 1.85156 0.25ZM4.72171 4.32812H7.16296V5.45312H7.19671C7.53702 4.80906 8.36671 4.12984 9.60562 4.12984C12.1847 4.12422 12.6628 5.82156 12.6628 8.02234V12.5223H10.1161V8.53562C10.1161 7.5864 10.0992 6.36437 8.79281 6.36437C7.4864 6.36437 7.26421 7.39937 7.26421 8.47374V12.5223H4.72171V4.32812Z" fill="white"/>
</svg>
